<?xml version="1.0" standalone="no"?>
<!DOCTYPE svg PUBLIC "-//W3C//DTD SVG 20010904//EN"
 "http://www.w3.org/TR/2001/REC-SVG-20010904/DTD/svg10.dtd">
<svg version="1.0" xmlns="http://www.w3.org/2000/svg"
 width="512.000000pt" height="512.000000pt" viewBox="0 0 512.000000 512.000000"
 preserveAspectRatio="xMidYMid meet">
<metadata>
Created by potrace 1.11, written by Peter Selinger 2001-2013
</metadata>
<g transform="translate(0.000000,512.000000) scale(0.100000,-0.100000)"
fill="#000000" stroke="none">
<path d="M2398 5115 c-2 -1 -39 -5 -83 -9 -44 -4 -89 -9 -100 -11 -11 -3 -38
-7 -60 -9 -214 -24 -531 -130 -781 -260 -192 -100 -332 -197 -509 -353 -305
-269 -537 -601 -688 -983 -39 -100 -77 -213 -82 -245 -1 -5 -3 -12 -4 -15 -2
-3 -4 -12 -6 -20 -64 -271 -80 -395 -80 -645 0 -192 7 -289 30 -420 168 -984
862 -1766 1815 -2046 64 -19 153 -40 260 -60 132 -26 232 -33 450 -34 206 0
324 8 434 31 11 2 37 7 56 10 105 17 325 82 455 134 172 68 446 217 527 285
16 14 33 25 36 25 4 0 18 10 32 23 14 12 59 49 100 82 82 65 239 219 311 305
345 413 540 874 598 1415 9 80 7 482 -2 520 -3 12 -8 48 -12 80 -9 70 -46 249
-74 350 -78 289 -271 658 -472 903 -418 512 -1027 854 -1649 927 -30 4 -68 9
-85 12 -30 5 -412 12 -417 8z"/>
</g>
</svg>
